HIERARCHY
ROOT Hips
{
  OFFSET 0.382225 96.6805 0.598322
  CHANNELS 6 Xposition Yposition Zposition Zrotation Xrotation Yrotation
  JOINT Spine
  {
    OFFSET 10.8089 -0.851416 0
    CHANNELS 3 Zrotation Xrotation Yrotation
    JOINT Spine1
    {
      OFFSET 18.8753 3.80116 0
      CHANNELS 3 Zrotation Xrotation Yrotation
      JOINT Spine2
      {
        OFFSET 13.4073 0.420477 0
        CHANNELS 3 Zrotation Xrotation Yrotation
        JOINT LeftShoulder
        {
          OFFSET 11.8837 -2.73209 -3.78198
          CHANNELS 3 Zrotation Xrotation Yrotation
          JOINT LeftArm
          {
            OFFSET 15.7849 0 -2.35849e-005
            CHANNELS 3 Zrotation Xrotation Yrotation
            JOINT LeftForeArm
            {
              OFFSET 30.3399 0 0
              CHANNELS 3 Zrotation Xrotation Yrotation
              JOINT LeftHand
              {
                OFFSET 26.9751 0 2.45913e-005
                CHANNELS 3 Zrotation Xrotation Yrotation
                End Site
                {
                  OFFSET 8 0 0
                }
              }
            }
          }
        }
        JOINT RightShoulder
        {
          OFFSET 11.8838 -2.7321 3.782
          CHANNELS 3 Zrotation Xrotation Yrotation
          JOINT RightArm
          {
            OFFSET -15.7848 0 -1.07056e-005
            CHANNELS 3 Zrotation Xrotation Yrotation
            JOINT RightForeArm
            {
              OFFSET -30.34 1.02096e-005 -2.53607e-005
              CHANNELS 3 Zrotation Xrotation Yrotation
              JOINT RightHand
              {
                OFFSET -26.9752 2.07668e-005 0
                CHANNELS 3 Zrotation Xrotation Yrotation
                End Site
                {
                  OFFSET -8 0 0
                }
              }
            }
          }
        }
        JOINT Neck
        {
          OFFSET 16.5588 -0.355318 0
          CHANNELS 3 Zrotation Xrotation Yrotation
          JOINT Head
          {
            OFFSET 9.28361 0.364157 0
            CHANNELS 3 Zrotation Xrotation Yrotation
            End Site
            {
              OFFSET 0 0 0
            }
          }
        }
      }
    }
  }
  JOINT LeftUpLeg
  {
    OFFSET -1.44883 -0.531424 -9.00581
    CHANNELS 3 Zrotation Xrotation Yrotation
    JOINT LeftLeg
    {
      OFFSET -42.572 0.0788889 -0.011964
      CHANNELS 3 Zrotation Xrotation Yrotation
      JOINT LeftFoot
      {
        OFFSET -40.1967 0 0
        CHANNELS 3 Zrotation Xrotation Yrotation
				JOINT LeftToe
        {
          OFFSET -10.4538 -16.5779 0.0801563
          CHANNELS 3 Zrotation Xrotation Yrotation
          End Site
          {
            OFFSET -1.0 -1.0 0.0
          }
        }
      }
    }
  }
  JOINT RightUpLeg
  {
    OFFSET -1.44865 -0.531427 9.0058
    CHANNELS 3 Zrotation Xrotation Yrotation
    JOINT RightLeg
    {
      OFFSET 42.5723 -3.24776e-005 0
      CHANNELS 3 Zrotation Xrotation Yrotation
      JOINT RightFoot
      {
        OFFSET 40.1968 0 -1.14003e-005
        CHANNELS 3 Zrotation Xrotation Yrotation
				JOINT RightToe
        {
          OFFSET 10.4538 16.5778 -0.0801573
          CHANNELS 3 Zrotation Xrotation Yrotation
          End Site
          {
            OFFSET -1.0 -1.0 0.0
          }
        }
      }
    }
  }
}
MOTION
Frames:	6
Frame Time:	0.0333333
-181.634 96.9594 69.8325 -167.534 -88.419 101.216 -11.6576 -2.47357 -0.0257259 12.4767 0.0752957 0.153984 2.7794 1.93418e-006 1.65929e-005 -3.85277 20.447 87.9114 -10.3412 -11.2936 6.31879 -1.11134 -15.0276 7.1097 -54.7392 -75.3681 -60.4346 179.986 7.38194 88.8613 -5.7576 -16.425 2.9521 -2.3307 -6.6265 -0.105299 8.80406 -77.1255 7.12884 -23.508 4.63459e-006 -5.90926e-006 9.9401 10.2978 4.972 5.15648 15.5991 -8.29065 -11.0671 -5.72113 1.34152 2.14911 0.978884 -1.21826 -90 0 0 -174.22 12.7706 -8.91273 -7.17683 -5.74715 1.84669 3.50125 2.76771 1.69647 -90 0 0
-182.43 97.0062 70.1103 159.66 -88.4877 67.9679 -11.9176 -2.60446 -0.203395 13.5579 0.0244704 0.0488354 2.7794 1.93418e-006 1.65929e-005 -3.69188 19.3747 87.6376 -8.66693 -10.6572 7.07836 -2.00535 -15.0015 6.67796 -53.218 -75.3456 -58.9169 -179.909 7.90655 87.7848 -6.943 -15.3502 3.96789 -1.51551 -6.56234 -0.0675338 -0.0711366 -77.6416 -1.42788 -23.508 4.63459e-006 -5.90926e-006 8.78397 10.4749 5.40567 8.41991 17.0272 -9.20918 -15.8987 -5.65855 0.740966 1.85519 -0.681131 0.315269 -90 0 0 -174.881 13.7301 -9.01052 -6.22392 -5.7534 1.99666 3.90722 2.80306 2.16947 -90 0 0
-183.137 97.053 70.3336 139.013 -88.1791 46.8981 -12.1279 -2.04405 -0.18812 13.7105 0.0171267 0.0340675 2.7794 1.93418e-006 1.65929e-005 -3.72337 19.0802 87.8966 -9.24782 -10.3819 6.74483 -1.65777 -15.0124 6.84581 -53.7462 -75.7152 -59.3036 179.956 8.49705 87.8701 -7.25103 -15.4761 3.46921 -1.26682 -6.54266 -0.0563361 -3.02533 -77.7067 -4.15507 -23.508 4.63459e-006 -5.90926e-006 9.52047 10.0066 5.42045 10.8485 18.4336 -10.1724 -19.0701 -5.6054 0.363999 0.836203 -2.70186 1.77828 -90 0 0 -175.308 14.3007 -9.06604 -5.77425 -5.75419 2.06761 4.28615 2.97193 2.30457 -90 0 0
-183.678 97.0774 70.546 131.559 -87.8571 39.1435 -12.3251 -1.75732 -0.334922 13.8143 0.0121017 0.0240392 2.7794 1.93418e-006 1.65929e-005 -3.69642 18.5948 87.9788 -8.91235 -10.2314 6.53561 -1.21537 -15.0248 7.05955 -53.0127 -75.6638 -58.6847 -179.97 8.14423 87.8445 -6.94209 -15.4761 3.18433 -1.13762 -6.53239 -0.0504317 -3.01527 -77.6809 -4.14418 -23.508 4.63459e-006 -5.90926e-006 10.0257 9.79347 5.56013 11.8721 18.6127 -10.7826 -20.1746 -5.61207 0.246227 -0.54241 -2.78913 3.6041 -90 0 0 -175.61 14.4004 -9.04216 -5.73081 -5.75473 2.07476 4.63354 3.27066 2.2274 -90 0 0
-184.053 97.092 70.8297 130.554 -87.6721 37.9663 -12.4208 -1.60929 -0.552706 13.7959 0.0129998 0.025827 2.7794 1.93418e-006 1.65929e-005 -3.69369 18.4529 88.0213 -8.60971 -10.2463 6.21107 -0.591546 -15.0396 7.3609 -54.6594 -75.8272 -60.5679 -179.984 8.18265 87.8805 -7.81093 -15.3955 2.89354 -0.518691 -6.48313 -0.0228091 -4.25566 -78.0383 -5.35137 -23.508 4.63459e-006 -5.90926e-006 10.7157 10.1246 5.36841 11.6259 18.1497 -10.9867 -19.5873 -5.62729 0.308522 -0.72975 -2.05933 3.34866 -90 0 0 -175.899 14.4726 -8.98419 -5.81428 -5.75512 2.06206 5.01805 3.38563 2.19857 -90 0 0
-184.312 97.0794 71.2002 133.583 -87.4729 41.0538 -12.2146 -1.21756 -0.881275 12.3197 0.0825273 0.169339 2.7794 1.93418e-006 1.65929e-005 -3.89828 19.5983 88.457 -10.5976 -11.3753 5.04232 1.1865 -15.0648 8.22044 -61.0591 -76.3967 -66.6767 179.137 10.3243 89.7028 -12.078 -16.3704 -0.130043 0.00708265 -3.08948 0.0897255 3.09753 -82.595 2.72902 -23.508 4.63459e-006 -5.90926e-006 13.8408 10.2371 4.59186 10.3108 16.9839 -10.9967 -17.6821 -5.64276 0.522905 0.326967 0.43338 1.31882 -90 0 0 -176.479 14.5673 -8.72524 -5.74246 -5.75531 2.0741 5.25248 3.41554 2.02906 -90 0 0
